/vscmnt/brussel_pixiu_data/_data_brussel/112/vsc11236/PredSimResults/SUBJ10opt3D/weighted-expIG/worker_04.mot
version=1
nRows=8
nColumns=50
inDegrees=yes
endheader
                time	         pelvis_tilt	         pelvis_list	     pelvis_rotation	           pelvis_tx	           pelvis_ty	           pelvis_tz	       hip_flexion_r	     hip_adduction_r	      hip_rotation_r	        knee_angle_r	       ankle_angle_r	         mtp_angle_r	       hip_flexion_l	     hip_adduction_l	      hip_rotation_l	        knee_angle_l	       ankle_angle_l	         mtp_angle_l	    lumbar_extension	      lumbar_bending	     lumbar_rotation	 ercspn_r/activation	 intobl_r/activation	 extobl_r/activation	    abd_r/activation	    add_r/activation	hamstrings_r/activation	bifemsh_r/activation	glut_max_r/activation	iliopsoas_r/activation	rect_fem_r/activation	  vasti_r/activation	gastroc_r/activation	 soleus_r/activation	tib_ant_r/activation	 ercspn_l/activation	 intobl_l/activation	 extobl_l/activation	    abd_l/activation	    add_l/activation	hamstrings_l/activation	bifemsh_l/activation	glut_max_l/activation	iliopsoas_l/activation	rect_fem_l/activation	  vasti_l/activation	gastroc_l/activation	 soleus_l/activation	tib_ant_l/activation	
          0.61296967	         -4.48836629	          1.11646782	         -6.50807531	          0.63135876	          0.82543329	          0.01421419	        -13.72040107	         -0.47662571	         -0.25397248	         -6.44538430	          9.82415371	         25.29025003	         30.05226105	         -1.21161049	         -5.08877009	         -5.81778753	          2.81667410	          0.25460017	         -5.85677644	          0.84310933	          6.78558793	          0.05472358	          0.00999999	          0.01000000	          0.07609821	          0.01000002	          0.01132624	          0.24467642	          0.02391076	          0.49599384	          0.01000003	          0.01000000	          0.33557238	          0.27541312	          0.02533016	          0.11749211	          0.16364724	          0.01000001	          0.01000005	          0.15217163	          0.12126388	          0.16637225	          0.02623840	          0.11246171	          0.01000004	          0.01000001	          0.01000001	          0.01000000	          0.27329695	
          0.62522906	         -4.53722954	          1.07951902	         -6.64148887	          0.64661261	          0.82376922	          0.01369524	        -13.85179036	         -0.59649517	         -0.61473196	         -8.05290674	          9.36025185	         26.95411346	         30.16137381	         -1.08342660	         -4.96474877	         -7.63907427	          2.51864279	          0.25208249	         -5.60602063	          0.34032576	          7.16887715	          0.09770569	          0.00999999	          0.01000000	          0.06318753	          0.01414350	          0.01555684	          0.20316510	          0.02450725	          0.44355633	          0.01000004	          0.01000000	          0.30865323	          0.26950476	          0.02103269	          0.10646331	          0.13588316	          0.01000002	          0.00999999	          0.21663351	          0.10253726	          0.13814707	          0.06375831	          0.09338167	          0.01000003	          0.01000000	          0.01450429	          0.01204325	          0.29431463	
          0.63748845	         -4.57382116	          1.06882428	         -6.74717767	          0.66228601	          0.82233150	          0.01309461	        -13.85350510	         -0.76119916	         -0.99653904	         -9.94486211	          8.73600893	         28.65563005	         30.05579386	         -0.95887833	         -4.74133238	         -9.29249645	          2.14900334	          0.24249126	         -5.31992671	         -0.19780799	          7.52763821	          0.11312477	          0.00999999	          0.01000000	          0.05246725	          0.01664340	          0.01650930	          0.16869651	          0.02034940	          0.36830344	          0.01000002	          0.01000000	          0.27307300	          0.25747223	          0.01746433	          0.08840097	          0.11282949	          0.01000001	          0.01310534	          0.17987989	          0.08660838	          0.11470935	          0.10223347	          0.07753871	          0.01000000	          0.01000000	          0.01204353	          0.01000002	          0.36313682	
          0.64974785	         -4.60003204	          1.07411826	         -6.81753169	          0.67818443	          0.82123254	          0.01234543	        -13.68040971	         -0.96311763	         -1.40185171	        -12.16370487	          7.91040734	         30.34748543	         29.78525242	         -0.81757518	         -4.59674736	        -10.67129918	          1.68548447	          0.23184249	         -5.02084407	         -0.74508118	          7.85496055	          0.12618925	          0.00999999	          0.01000000	          0.04356576	          0.01381975	          0.01371057	          0.14007580	          0.01689696	          0.30581778	          0.01000002	          0.01000000	          0.22674395	          0.24009548	          0.01450136	          0.10340509	          0.09368705	          0.01000001	          0.05505651	          0.17938882	          0.07499793	          0.09524799	          0.11347954	          0.06438364	          0.01000001	          0.01000000	          0.01000025	          0.01000000	          0.41218331	
          0.66200724	         -4.61668654	          1.08037393	         -6.85346092	          0.69410658	          0.82056135	          0.01146783	        -13.29468512	         -1.18653016	         -1.83335772	        -14.74022989	          6.86570614	         31.92263949	         29.44958030	         -0.67374560	         -4.55152601	        -11.96123563	          1.26728963	          0.22039531	         -4.72940450	         -1.28585069	          8.14428898	          0.15223060	          0.00999999	          0.01000000	          0.03617447	          0.02661224	          0.02175050	          0.11631083	          0.01403026	          0.25393331	          0.01000001	          0.00999999	          0.18827500	          0.21864524	          0.01204109	          0.10537028	          0.07779228	          0.01000001	          0.09373202	          0.20731202	          0.06723706	          0.07908841	          0.11596557	          0.05346043	          0.01000001	          0.01772327	          0.01000001	          0.01000000	          0.43807801	
          0.67426663	         -4.62502161	          1.08843111	         -6.85789149	          0.70988536	          0.82039905	          0.01048639	        -12.66585350	         -1.43358033	         -2.29657419	        -17.69148274	          5.61500236	         33.19639736	         29.10172769	         -0.52833520	         -4.58284695	        -13.24615266	          1.00169198	          0.20739398	         -4.45808059	         -1.82080083	          8.39331418	          0.17253848	          0.00999999	          0.01000000	          0.03003718	          0.10618357	          0.03044305	          0.09657779	          0.01164992	          0.21085147	          0.01000001	          0.00999999	          0.15633261	          0.18624804	          0.01000000	          0.10001437	          0.06459419	          0.01000000	          0.11999800	          0.22051916	          0.06598713	          0.06567043	          0.10876296	          0.04439044	          0.01000001	          0.06398203	          0.01000000	          0.01000000	          0.45376615	
          0.68652603	         -4.62768728	          1.09449756	         -6.83085456	          0.72538551	          0.82084205	          0.00943232	        -11.76978299	         -1.70140655	         -2.81030536	        -21.02179014	          4.19637708	         33.89699322	         28.71729367	         -0.38005036	         -4.65623795	        -14.47051054	          0.97476961	          0.19354015	         -4.21668167	         -2.34581569	          8.60018406	          0.18272858	          0.00999999	          0.01000000	          0.02494113	          0.17802927	          0.04415467	          0.08019266	          0.01000000	          0.17507880	          0.01000000	          0.00999999	          0.12980952	          0.15464955	          0.01000000	          0.09412769	          0.05363526	          0.01000001	          0.13588938	          0.22984958	          0.06656676	          0.05452892	          0.09636273	          0.03685924	          0.01000000	          0.10117499	          0.01000000	          0.01000000	          0.43606770	
          0.69878542	         -4.62711150	          1.09081092	         -6.77278220	          0.74052424	          0.82192562	          0.00833897	        -10.59774965	         -1.98872467	         -3.38488916	        -24.72112173	          2.65605381	         33.77511882	         28.25228952	         -0.22912151	         -4.72994504	        -15.55824943	          1.26782608	          0.19706910	         -4.01123837	         -2.85359403	          8.76378350	          0.18898044	          0.01000000	          0.01000000	          0.02070966	          0.24007314	          0.04709216	          0.06658749	          0.01000000	          0.14537527	          0.01000000	          0.00999999	          0.10778628	          0.12841200	          0.00999999	          0.08615822	          0.04453561	          0.01000001	          0.14588797	          0.22458025	          0.06927072	          0.04527766	          0.08035039	          0.03060577	          0.01000000	          0.13933764	          0.01000000	          0.01000000	          0.38249273	
